<svg xmlns="http://www.w3.org/2000/svg" xmlns:xlink="http://www.w3.org/1999/xlink" width="1080" zoomAndPan="magnify" viewBox="0 0 810 809.999993" height="1080" preserveAspectRatio="xMidYMid meet" version="1.0"><defs><clipPath id="8b8ed67998"><path d="M 395.335938 423.742188 L 810 423.742188 L 810 810 L 395.335938 810 Z M 395.335938 423.742188 " clip-rule="nonzero"/></clipPath><clipPath id="3327264315"><path d="M 116.574219 551.429688 L 657.5 551.429688 L 657.5 810 L 116.574219 810 Z M 116.574219 551.429688 " clip-rule="nonzero"/></clipPath><clipPath id="04597753c5"><path d="M 191.574219 551.429688 L 582.199219 551.429688 C 623.621094 551.429688 657.199219 585.007812 657.199219 626.429688 L 657.199219 735.75 C 657.199219 777.171875 623.621094 810.75 582.199219 810.75 L 191.574219 810.75 C 150.152344 810.75 116.574219 777.171875 116.574219 735.75 L 116.574219 626.429688 C 116.574219 585.007812 150.152344 551.429688 191.574219 551.429688 Z M 191.574219 551.429688 " clip-rule="nonzero"/></clipPath><clipPath id="524876b174"><path d="M 0 670.339844 L 375.03125 670.339844 L 375.03125 810 L 0 810 Z M 0 670.339844 " clip-rule="nonzero"/></clipPath><clipPath id="d384422fc8"><path d="M 605.726562 649.15625 L 810 649.15625 L 810 810 L 605.726562 810 Z M 605.726562 649.15625 " clip-rule="nonzero"/></clipPath></defs><g clip-path="url(#8b8ed67998)"><path fill="#000000" d="M 810.214844 670.246094 C 810.214844 672.542969 810.160156 674.839844 810.050781 677.132812 C 809.9375 679.429688 809.769531 681.722656 809.546875 684.007812 C 809.324219 686.292969 809.042969 688.574219 808.707031 690.847656 C 808.371094 693.121094 807.980469 695.386719 807.535156 697.640625 C 807.085938 699.894531 806.585938 702.132812 806.027344 704.363281 C 805.472656 706.59375 804.859375 708.808594 804.195312 711.007812 C 803.527344 713.207031 802.808594 715.386719 802.035156 717.550781 C 801.265625 719.714844 800.4375 721.859375 799.5625 723.984375 C 798.683594 726.105469 797.753906 728.207031 796.773438 730.285156 C 795.789062 732.363281 794.757812 734.414062 793.675781 736.441406 C 792.59375 738.46875 791.464844 740.46875 790.285156 742.441406 C 789.105469 744.414062 787.875 746.355469 786.601562 748.265625 C 785.324219 750.179688 784.003906 752.058594 782.636719 753.902344 C 781.269531 755.75 779.855469 757.5625 778.398438 759.339844 C 776.941406 761.117188 775.445312 762.855469 773.902344 764.558594 C 772.359375 766.261719 770.777344 767.929688 769.152344 769.554688 C 767.527344 771.179688 765.867188 772.765625 764.164062 774.308594 C 762.460938 775.855469 760.722656 777.355469 758.949219 778.8125 C 757.171875 780.273438 755.363281 781.6875 753.519531 783.058594 C 751.675781 784.425781 749.796875 785.75 747.886719 787.027344 C 745.976562 788.308594 744.035156 789.539062 742.066406 790.71875 C 740.097656 791.902344 738.097656 793.035156 736.074219 794.121094 C 734.046875 795.203125 731.996094 796.238281 729.917969 797.222656 C 727.84375 798.207031 725.742188 799.140625 723.621094 800.019531 C 721.496094 800.898438 719.355469 801.726562 717.191406 802.503906 C 715.027344 803.28125 712.847656 804 710.648438 804.667969 C 708.449219 805.339844 706.238281 805.953125 704.007812 806.511719 C 701.78125 807.070312 699.539062 807.578125 697.285156 808.027344 C 695.03125 808.476562 692.769531 808.871094 690.496094 809.207031 C 688.222656 809.546875 685.945312 809.828125 683.65625 810.054688 C 681.371094 810.285156 679.078125 810.453125 676.785156 810.566406 C 674.488281 810.683594 672.191406 810.738281 669.894531 810.742188 L 395.84375 810.742188 L 395.84375 693.171875 C 395.84375 690.875 395.898438 688.574219 396.011719 686.28125 C 396.125 683.984375 396.292969 681.691406 396.515625 679.40625 C 396.742188 677.117188 397.023438 674.835938 397.359375 672.5625 C 397.695312 670.289062 398.089844 668.023438 398.535156 665.769531 C 398.984375 663.515625 399.488281 661.273438 400.042969 659.042969 C 400.601562 656.8125 401.214844 654.597656 401.882812 652.398438 C 402.546875 650.195312 403.269531 648.015625 404.042969 645.851562 C 404.816406 643.6875 405.644531 641.542969 406.523438 639.417969 C 407.402344 637.292969 408.332031 635.191406 409.316406 633.113281 C 410.296875 631.035156 411.328125 628.984375 412.414062 626.957031 C 413.496094 624.925781 414.628906 622.929688 415.808594 620.957031 C 416.992188 618.984375 418.21875 617.042969 419.496094 615.128906 C 420.773438 613.21875 422.09375 611.339844 423.464844 609.492188 C 424.832031 607.644531 426.246094 605.832031 427.703125 604.054688 C 429.164062 602.277344 430.664062 600.539062 432.207031 598.835938 C 433.75 597.132812 435.332031 595.464844 436.960938 593.839844 C 438.585938 592.214844 440.246094 590.628906 441.949219 589.085938 C 443.652344 587.542969 445.394531 586.039062 447.171875 584.582031 C 448.945312 583.121094 450.757812 581.707031 452.605469 580.339844 C 454.449219 578.96875 456.328125 577.644531 458.238281 576.367188 C 460.152344 575.089844 462.09375 573.859375 464.0625 572.675781 C 466.035156 571.496094 468.035156 570.363281 470.0625 569.277344 C 472.089844 568.195312 474.140625 567.160156 476.21875 566.175781 C 478.296875 565.191406 480.398438 564.261719 482.519531 563.382812 C 484.644531 562.5 486.789062 561.671875 488.953125 560.898438 C 491.117188 560.125 493.296875 559.402344 495.496094 558.734375 C 497.695312 558.066406 499.910156 557.453125 502.140625 556.894531 C 504.371094 556.335938 506.613281 555.832031 508.867188 555.382812 C 511.121094 554.933594 513.386719 554.539062 515.660156 554.203125 C 517.933594 553.863281 520.214844 553.582031 522.503906 553.355469 C 524.789062 553.128906 527.082031 552.960938 529.378906 552.847656 C 531.671875 552.734375 533.972656 552.675781 536.269531 552.675781 L 680.953125 552.675781 C 683.066406 552.675781 685.179688 552.625 687.292969 552.519531 C 689.40625 552.417969 691.515625 552.261719 693.621094 552.054688 C 695.726562 551.847656 697.824219 551.589844 699.917969 551.28125 C 702.007812 550.96875 704.09375 550.609375 706.167969 550.195312 C 708.242188 549.785156 710.304688 549.320312 712.355469 548.808594 C 714.410156 548.292969 716.445312 547.730469 718.472656 547.117188 C 720.496094 546.503906 722.503906 545.839844 724.496094 545.128906 C 726.488281 544.414062 728.460938 543.652344 730.414062 542.84375 C 732.367188 542.035156 734.300781 541.179688 736.214844 540.273438 C 738.125 539.371094 740.015625 538.421875 741.878906 537.421875 C 743.746094 536.425781 745.585938 535.382812 747.402344 534.296875 C 749.214844 533.210938 751 532.078125 752.761719 530.90625 C 754.519531 529.730469 756.25 528.511719 757.949219 527.253906 C 759.648438 525.992188 761.3125 524.691406 762.949219 523.351562 C 764.585938 522.007812 766.183594 520.628906 767.753906 519.207031 C 769.320312 517.789062 770.851562 516.328125 772.347656 514.832031 C 773.84375 513.339844 775.300781 511.808594 776.722656 510.238281 C 778.144531 508.671875 779.523438 507.070312 780.867188 505.4375 C 782.210938 503.800781 783.511719 502.136719 784.769531 500.4375 C 786.03125 498.738281 787.25 497.007812 788.425781 495.25 C 789.597656 493.492188 790.730469 491.707031 791.820312 489.890625 C 792.90625 488.078125 793.949219 486.238281 794.945312 484.371094 C 795.945312 482.507812 796.894531 480.617188 797.800781 478.707031 C 798.703125 476.792969 799.5625 474.863281 800.371094 472.90625 C 801.179688 470.953125 801.941406 468.980469 802.652344 466.988281 C 803.367188 464.996094 804.03125 462.988281 804.644531 460.964844 C 805.257812 458.941406 805.824219 456.902344 806.335938 454.851562 C 806.851562 452.800781 807.316406 450.738281 807.726562 448.664062 C 808.140625 446.589844 808.503906 444.503906 808.8125 442.414062 C 809.125 440.320312 809.382812 438.222656 809.589844 436.117188 C 809.796875 434.011719 809.953125 431.902344 810.058594 429.789062 C 810.164062 427.679688 810.214844 425.5625 810.214844 423.449219 Z M 810.214844 670.246094 " fill-opacity="1" fill-rule="nonzero"/></g><g clip-path="url(#3327264315)"><g clip-path="url(#04597753c5)"><path fill="#000000" d="M 116.574219 551.429688 L 657.5 551.429688 L 657.5 810.75 L 116.574219 810.75 Z M 116.574219 551.429688 " fill-opacity="1" fill-rule="nonzero"/></g></g><g clip-path="url(#524876b174)"><path fill="#000000" d="M 234.898438 810.214844 C 237.195312 810.21875 239.492188 810.164062 241.785156 810.050781 C 244.082031 809.941406 246.371094 809.773438 248.660156 809.546875 C 250.945312 809.324219 253.226562 809.046875 255.5 808.710938 C 257.773438 808.375 260.035156 807.980469 262.292969 807.535156 C 264.546875 807.089844 266.785156 806.585938 269.015625 806.03125 C 271.246094 805.472656 273.460938 804.863281 275.660156 804.195312 C 277.859375 803.53125 280.039062 802.8125 282.203125 802.039062 C 284.367188 801.265625 286.511719 800.441406 288.636719 799.5625 C 290.757812 798.683594 292.859375 797.753906 294.9375 796.773438 C 297.015625 795.792969 299.066406 794.761719 301.09375 793.679688 C 303.121094 792.597656 305.121094 791.464844 307.09375 790.285156 C 309.066406 789.105469 311.007812 787.878906 312.917969 786.601562 C 314.828125 785.328125 316.710938 784.003906 318.554688 782.636719 C 320.402344 781.269531 322.214844 779.859375 323.992188 778.402344 C 325.769531 776.945312 327.507812 775.445312 329.210938 773.902344 C 330.914062 772.359375 332.582031 770.777344 334.207031 769.152344 C 335.832031 767.53125 337.417969 765.867188 338.960938 764.164062 C 340.507812 762.464844 342.007812 760.726562 343.464844 758.949219 C 344.925781 757.175781 346.339844 755.363281 347.710938 753.519531 C 349.078125 751.675781 350.402344 749.796875 351.679688 747.886719 C 352.960938 745.976562 354.191406 744.039062 355.371094 742.066406 C 356.554688 740.097656 357.6875 738.101562 358.773438 736.074219 C 359.855469 734.046875 360.890625 731.996094 361.875 729.921875 C 362.859375 727.84375 363.792969 725.742188 364.671875 723.621094 C 365.550781 721.5 366.378906 719.355469 367.15625 717.191406 C 367.933594 715.03125 368.652344 712.847656 369.320312 710.652344 C 369.992188 708.453125 370.605469 706.238281 371.164062 704.011719 C 371.722656 701.78125 372.230469 699.539062 372.679688 697.285156 C 373.128906 695.035156 373.523438 692.769531 373.859375 690.496094 C 374.199219 688.226562 374.480469 685.945312 374.707031 683.660156 C 374.933594 681.371094 375.105469 679.082031 375.21875 676.785156 C 375.335938 674.492188 375.390625 672.195312 375.394531 669.894531 L 375.394531 395.84375 L 257.824219 395.84375 C 255.527344 395.84375 253.226562 395.898438 250.933594 396.011719 C 248.636719 396.125 246.34375 396.292969 244.058594 396.519531 C 241.769531 396.742188 239.488281 397.023438 237.214844 397.359375 C 234.941406 397.695312 232.675781 398.089844 230.421875 398.539062 C 228.167969 398.984375 225.925781 399.488281 223.695312 400.046875 C 221.464844 400.605469 219.25 401.214844 217.050781 401.882812 C 214.847656 402.550781 212.667969 403.269531 210.503906 404.042969 C 208.339844 404.816406 206.195312 405.644531 204.070312 406.523438 C 201.945312 407.402344 199.84375 408.332031 197.765625 409.316406 C 195.6875 410.296875 193.636719 411.332031 191.609375 412.414062 C 189.578125 413.496094 187.578125 414.628906 185.609375 415.8125 C 183.636719 416.992188 181.695312 418.222656 179.78125 419.496094 C 177.871094 420.773438 175.992188 422.097656 174.144531 423.464844 C 172.296875 424.835938 170.484375 426.25 168.707031 427.707031 C 166.929688 429.164062 165.191406 430.664062 163.488281 432.207031 C 161.785156 433.75 160.117188 435.335938 158.492188 436.960938 C 156.867188 438.585938 155.28125 440.25 153.738281 441.953125 C 152.195312 443.65625 150.691406 445.394531 149.234375 447.171875 C 147.773438 448.949219 146.359375 450.757812 144.992188 452.605469 C 143.621094 454.453125 142.296875 456.328125 141.019531 458.242188 C 139.742188 460.152344 138.511719 462.09375 137.328125 464.066406 C 136.148438 466.035156 135.015625 468.035156 133.929688 470.0625 C 132.847656 472.089844 131.8125 474.140625 130.828125 476.21875 C 129.84375 478.296875 128.914062 480.398438 128.035156 482.519531 C 127.152344 484.644531 126.324219 486.789062 125.550781 488.953125 C 124.777344 491.117188 124.054688 493.300781 123.386719 495.5 C 122.71875 497.699219 122.105469 499.914062 121.546875 502.144531 C 120.988281 504.371094 120.484375 506.613281 120.035156 508.867188 C 119.585938 511.125 119.191406 513.386719 118.855469 515.660156 C 118.515625 517.933594 118.234375 520.214844 118.007812 522.503906 C 117.78125 524.792969 117.613281 527.082031 117.5 529.378906 C 117.386719 531.675781 117.328125 533.972656 117.328125 536.269531 L 117.328125 680.953125 C 117.328125 683.070312 117.277344 685.183594 117.171875 687.296875 C 117.070312 689.40625 116.914062 691.515625 116.707031 693.621094 C 116.5 695.726562 116.242188 697.824219 115.933594 699.917969 C 115.621094 702.011719 115.261719 704.09375 114.847656 706.167969 C 114.4375 708.242188 113.972656 710.304688 113.460938 712.359375 C 112.945312 714.410156 112.382812 716.449219 111.769531 718.472656 C 111.15625 720.496094 110.492188 722.503906 109.78125 724.496094 C 109.066406 726.488281 108.304688 728.460938 107.496094 730.414062 C 106.6875 732.371094 105.832031 734.304688 104.925781 736.214844 C 104.023438 738.128906 103.074219 740.015625 102.074219 741.882812 C 101.078125 743.746094 100.035156 745.585938 98.949219 747.402344 C 97.863281 749.214844 96.730469 751.003906 95.558594 752.761719 C 94.382812 754.519531 93.164062 756.25 91.90625 757.949219 C 90.644531 759.648438 89.34375 761.316406 88.003906 762.949219 C 86.660156 764.585938 85.28125 766.1875 83.859375 767.753906 C 82.4375 769.320312 80.980469 770.851562 79.484375 772.347656 C 77.992188 773.84375 76.460938 775.304688 74.890625 776.722656 C 73.324219 778.144531 71.722656 779.527344 70.089844 780.867188 C 68.453125 782.210938 66.789062 783.511719 65.089844 784.773438 C 63.390625 786.03125 61.660156 787.25 59.902344 788.425781 C 58.144531 789.601562 56.359375 790.730469 54.542969 791.820312 C 52.730469 792.90625 50.890625 793.949219 49.023438 794.945312 C 47.160156 795.945312 45.269531 796.894531 43.359375 797.800781 C 41.445312 798.703125 39.515625 799.5625 37.558594 800.371094 C 35.605469 801.179688 33.632812 801.941406 31.640625 802.65625 C 29.648438 803.367188 27.640625 804.03125 25.617188 804.644531 C 23.59375 805.261719 21.554688 805.824219 19.503906 806.339844 C 17.453125 806.851562 15.390625 807.316406 13.316406 807.730469 C 11.242188 808.140625 9.15625 808.503906 7.066406 808.816406 C 4.972656 809.125 2.875 809.382812 0.769531 809.59375 C -1.335938 809.800781 -3.445312 809.957031 -5.558594 810.058594 C -7.671875 810.164062 -9.785156 810.214844 -11.898438 810.214844 Z M 234.898438 810.214844 " fill-opacity="1" fill-rule="nonzero"/></g><g clip-path="url(#d384422fc8)"><path fill="#000000" d="M 605.726562 649.15625 L 848.726562 649.15625 L 848.726562 892.15625 L 605.726562 892.15625 Z M 605.726562 649.15625 " fill-opacity="1" fill-rule="nonzero"/></g></svg>